<svg xmlns="http://www.w3.org/2000/svg" width="210mm" height="297mm" viewBox="0 0 210 297">
  <path d="M105.34 97.051c0 10.601-2.198 20.768-6.11 28.264-3.912 7.496-9.217 11.708-14.75 11.708-5.531 0-10.837-4.212-14.748-11.708-3.912-7.496-6.11-17.663-6.11-28.264 0-10.6 2.198-20.768 6.11-28.264 3.911-7.496 10.049-4.991 13.464-42.248 4.118 37.599 12.122 34.752 16.034 42.248 3.912 7.496 6.11 17.663 6.11 28.264zM154.043 99.248c-.185 10.6-2.56 20.727-6.601 28.153-4.042 7.427-9.42 11.545-14.952 11.449-5.531-.097-10.762-4.4-14.543-11.963-3.78-7.564-5.8-17.767-5.615-28.367.185-10.6 2.56-20.726 6.602-28.153s10.135-4.815 14.2-42.006c3.461 37.664 11.514 34.958 15.294 42.52 3.78 7.564 5.8 17.768 5.615 28.367zM62.621 139.256c3.534 8.324 5.08 16.985 4.298 24.078-.781 7.092-3.826 12.035-8.465 13.742-4.639 1.706-10.491.035-16.27-4.644-5.778-4.68-11.01-11.985-14.543-20.31-3.533-8.323-5.376-18.8-4.298-24.077-3.85-2.212-8.138-40.49 5.186-42.896-1.469 19.525 2.188 26.164 3.192 28.078 7.66-.965 9.903.69 15.109 4.649 5.205 3.96 12.258 13.056 15.791 21.38zM152.552 139.381c-3.534 8.324-5.08 16.985-4.298 24.078.781 7.093 3.827 12.036 8.465 13.742 4.639 1.706 10.491.036 16.27-4.644 5.778-4.68 11.01-11.985 14.543-20.309 3.533-8.324 5.376-18.801 4.298-24.077 3.85-2.212 8.138-40.491-5.186-42.896 1.469 19.525-2.188 26.163-3.192 28.077-7.66-.964-9.903.69-15.108 4.65-5.206 3.959-12.259 13.055-15.792 21.38zM147.578 251.164c-15.23-.316-26.99-15.395-42.223-15.288-14.628.103-24.173 15.403-41.368 14.647-17.194-.756-21.93-9.426-25.272-19.535-3.349-10.135.41-24.21 8.679-30.824 8.268-6.615 20.075-7.055 27.504-14.365 8.298-8.165 6.592-33.738 31.816-33.536 25.224.202 23.48 23.232 33.083 35.674 8.515 11.032 20.316 5.723 29.452 18.437 6.25 8.698 7.205 18.534 3.028 28.397-3.691 8.717-12.106 16.655-24.699 16.393z" />
</svg>
